<?xml version="1.0" standalone="no"?>
<!DOCTYPE svg PUBLIC "-//W3C//DTD SVG 20010904//EN"
 "http://www.w3.org/TR/2001/REC-SVG-20010904/DTD/svg10.dtd">
<svg version="1.0" xmlns="http://www.w3.org/2000/svg"
 width="260.000000pt" height="260.000000pt" viewBox="0 0 260.000000 260.000000"
 preserveAspectRatio="xMidYMid meet">
<metadata>
Created by potrace 1.11, written by Peter Selinger 2001-2013
</metadata>
<g transform="translate(0.000000,260.000000) scale(0.100000,-0.100000)"
fill="#000000" stroke="none">
<path d="M0 2197 l0 -403 720 0 720 0 0 403 0 403 -720 0 -720 0 0 -403z"/>
<path d="M1550 1983 l0 -613 525 0 525 0 -2 613 -3 612 -522 1 -523 1 0 -614z"/>
<path d="M0 843 l0 -843 723 2 722 3 0 840 0 840 -723 1 -722 0 0 -843z"/>
<path d="M1549 1255 c-1 -13 -1 -1227 0 -1241 1 -8 154 -11 524 -10 l522 1 0
630 0 630 -522 0 c-357 1 -523 -2 -524 -10z"/>
</g>
</svg>
