<?xml version="1.0" encoding="utf-8"?>
<!-- Generator: Adobe Illustrator 22.0.0, SVG Export Plug-In . SVG Version: 6.00 Build 0)  -->
<svg version="1.1" id="Layer_1" xmlns="http://www.w3.org/2000/svg" xmlns:xlink="http://www.w3.org/1999/xlink" x="0px" y="0px"
	 viewBox="0 0 256.9 228.2" style="enable-background:new 0 0 256.9 228.2;" xml:space="preserve">
<style type="text/css">
	.st0{opacity:0.9;}
	.st1{fill:#FFFFFF;}
	.st2{opacity:0.85;}
</style>
<g class="st0">
	<g>
		<path class="st1" d="M137.6,129c-5.8-5.5-6.1-14.6-0.6-20.5l42.3-44.8c5.5-5.8,14.6-6.1,20.4-0.6s6.1,14.6,0.6,20.4L158,128.4
			C152.5,134.2,143.4,134.4,137.6,129"/>
	</g>
</g>
<path class="st1" d="M121.4,163.7L41.9,89c-2.5-2.3-2.6-6.2-0.3-8.6l15.6-16.6l84,78.9c1.2,1.2,1.3,3.1,0.1,4.3l-15.6,16.6
	C124.6,164.8,122.7,164.9,121.4,163.7"/>
<path class="st1" d="M130.8,222.4l-20.1-17.9L215.8,93.3c12.4-13,12.1-33.8-0.6-46.5c-12.6-12.5-32.3-12.6-45-0.3l-29.7,30l-19.2-19
	l30-30.2c23.4-22.8,59.9-22.6,83.1,0.5c23,22.9,23.5,60.8,1.1,84.3L130.8,222.4z"/>
<g class="st0">
	<g>
		<path class="st1" d="M130.8,222.4L28.7,131.7c-14.6-13.2-23.1-31.3-24-50.9c-0.9-19.6,5.8-38.4,19-52.9C50.5-1.4,96-3.6,125.4,23
			l0.2,0.2L159.8,57l-19.4,19.5l-34-33.6c-18.3-16.5-46-15.1-62.7,3.2c-8.3,9.1-12.6,21-12,33.4c0.6,12.4,5.9,23.8,15,32.1
			l102.7,91.3L130.8,222.4z"/>
	</g>
</g>
<g class="st2">
	<g>
		<path class="st1" d="M158,128.4c-5.5,5.8-14.6,6.1-20.4,0.6L72.8,68.2c-5.8-5.5-6.1-14.6-0.6-20.4c5.5-5.8,14.6-6.1,20.4-0.6
			l64.8,60.8C163.2,113.4,163.5,122.6,158,128.4"/>
	</g>
</g>
</svg>
