<?xml version="1.0" standalone="no"?>
<!DOCTYPE svg PUBLIC "-//W3C//DTD SVG 20010904//EN"
 "http://www.w3.org/TR/2001/REC-SVG-20010904/DTD/svg10.dtd">
<svg version="1.0" xmlns="http://www.w3.org/2000/svg"
 width="600.000000pt" height="600.000000pt" viewBox="0 0 600.000000 600.000000"
 preserveAspectRatio="xMidYMid meet">
<metadata>
Created by potrace 1.11, written by Peter Selinger 2001-2013
</metadata>
<g transform="translate(0.000000,600.000000) scale(0.100000,-0.100000)"
fill="#000000" stroke="none">
<path d="M3705 5933 c-21 -5 -1794 -667 -1830 -683 -11 -5 -155 -59 -320 -121
-165 -61 -311 -118 -323 -126 -31 -19 -54 -76 -46 -111 10 -41 85 -151 144
-210 82 -82 189 -166 307 -240 131 -82 148 -90 194 -87 28 2 823 291 924 335
11 5 166 64 345 130 179 67 388 145 465 175 77 29 204 76 283 105 l142 53 0
295 c0 192 -4 308 -11 333 -33 107 -162 179 -274 152z"/>
<path d="M4160 5015 c-135 -51 -256 -97 -270 -103 -14 -5 -41 -15 -60 -22 -19
-6 -44 -16 -55 -21 -11 -5 -346 -130 -745 -279 -399 -149 -734 -275 -745 -280
-11 -5 -101 -38 -200 -75 -107 -39 -187 -74 -198 -87 -16 -19 -17 -125 -17
-1912 0 -1777 1 -1892 18 -1912 9 -12 25 -24 35 -27 11 -4 88 19 195 59 97 37
195 73 217 81 71 25 279 104 300 113 11 4 234 88 495 186 261 97 481 179 489
182 10 4 12 19 8 61 -20 188 -70 322 -155 413 -43 47 -127 98 -159 98 -8 0
-12 4 -8 9 8 14 117 5 172 -14 66 -22 129 -64 189 -127 101 -104 152 -199 249
-458 32 -85 77 -197 101 -249 124 -266 320 -464 546 -551 44 -17 82 -29 84
-27 2 2 -7 30 -21 62 -63 142 -96 336 -62 363 7 5 33 7 62 3 64 -8 248 -4 300
7 l40 8 -84 42 c-103 52 -188 112 -264 187 -80 79 -122 138 -216 298 l-80 138
27 10 c105 39 191 73 216 86 55 28 113 91 125 136 9 31 11 480 9 1772 l-3
1730 -21 45 c-42 91 -132 151 -222 149 -33 -1 -122 -30 -292 -94z m-236 -916
c52 -24 51 7 51 -1169 1 -637 -3 -1111 -8 -1133 -6 -23 -22 -48 -43 -66 l-34
-27 49 -33 c44 -28 155 -141 147 -148 -2 -2 -26 18 -53 45 -28 26 -77 61 -109
77 -53 27 -68 30 -154 29 -117 0 -170 -8 -268 -39 -79 -25 -156 -68 -204 -112
-19 -18 -104 -52 -286 -113 -143 -48 -264 -90 -269 -93 -6 -4 -28 -9 -51 -13
-53 -8 -120 23 -147 68 -20 32 -20 55 -21 1117 0 1075 0 1085 20 1125 26 51
67 79 164 110 43 13 284 95 537 181 413 141 607 203 642 204 7 1 23 -4 37 -10z
m-507 -2804 c74 -49 63 -189 -18 -231 -112 -58 -226 59 -175 180 14 34 57 71
91 78 25 5 70 -7 102 -27z"/>
<path d="M1047 4602 c-16 -17 -17 -159 -17 -1836 0 -1749 1 -1818 19 -1870 35
-101 128 -222 255 -333 73 -64 237 -177 286 -197 32 -13 38 -13 60 4 l24 18 0
1868 c1 1028 -1 1886 -3 1908 -3 33 -9 42 -48 65 -210 125 -373 247 -467 349
-44 47 -81 55 -109 24z"/>
</g>
</svg>
